# xmcd
#
# Track frame offsets: 
#        150
#        20025
#        37125
#        58538
#        74700
#        89513
#        109913
#        139313
#        155888
#        179738
#        197100
#        213487
#        234375
#        253350
#
# Disc length: 3690 seconds
#
# Revision: 0
# Processed by: cddbd v1.5.2PL0 Copyright (c) Steve Scherf et al.
# Submitted via: ExactAudioCopy v0.99pb5
#
DISCID=e80e680e
DTITLE=Outsider Blues - Outsider Blues
DYEAR=2009
DGENRE=Blues
TTITLE0=01.Pojde za toba
TTITLE1=02.Honey Bee
TTITLE2=03.Mam cie dosc
TTITLE3=04.One step at the time
TTITLE4=05.Pragnienie
TTITLE5=06.You don t love me
TTITLE6=07.I wonder why
TTITLE7=08.Bania
TTITLE8=09.Kiedy bede sam
TTITLE9=10.Evil
TTITLE10=11.Driver
TTITLE11=12.Goin away baby
TTITLE12=13.Pride and Joy
TTITLE13=14.Czarno-czarny film (dla Miry)
EXTD=
EXTT0=
EXTT1=
EXTT2=
EXTT3=
EXTT4=
EXTT5=
EXTT6=
EXTT7=
EXTT8=
EXTT9=
EXTT10=
EXTT11=
EXTT12=
EXTT13=
PLAYORDER=
